_________________________  Visit us at _________________________
  
http://p2pdl.com  ____________________________  http://p2pdl.com


Foxfire 2012 BRRip 720p x264 AAC - PRiSTiNE [P2PDL]

Genre: Drama
Plot: Set in the 1950s, a group of young girls in 
upstate New York form their own gang.
Director: Laurent Cantet
Stars: Ali Liebert, Michelle Nolden, Tamara Hope
Rated: No

Info: 
http://www.imdb.com/title/tt1772270/

General
Complete name                  : Foxfire 2012 BRRip 720p x264 AAC - PRiSTiNE.mp4
Format                         : MPEG-4
File size                      : 894 MiB
Duration                       : 2h 23mn
Overall bit rate mode          : Variable
Overall bit rate               : 872 Kbps

Video
Format                         : AVC
Format/Info                    : Advanced Video Codec
Format profile                 : High 10@L4.1
Bit rate                       : 789 Kbps
Width                          : 1 280 pixels
Height                         : 544 pixels
Display aspect ratio           : 2.35:1
Frame rate mode                : Constant
Frame rate                     : 23.976 fps
Bit depth                      : 10 bits
Stream size                    : 809 MiB (90%)
Writing library                : x264 core 130 r2273 b3065e6

Audio
Format                         : AAC
Format/Info                    : Advanced Audio Codec
Bit rate                       : 79.8 Kbps
Channel(s)                     : 2 channels
Channel positions              : Front: L R
Sampling rate                  : 48.0 KHz / 24.0 KHz
Stream size                    : 81.8 MiB (9%)
Language                       : English

Subtitle                       : Yes (French)
Source                         : 720p.BluRay.x264-ROUGH (Thanks)

Screenshots:
 
http://www.ultraimg.com/images/6wPVJ.jpg 
http://www.ultraimg.com/images/8QxY5.jpg 
http://www.ultraimg.com/images/84Ltv.jpg 
http://www.ultraimg.com/images/Qk65Y.jpg 
http://www.ultraimg.com/images/Vv1Bj.jpg 
http://www.ultraimg.com/images/9LNYk.jpg 
http://www.ultraimg.com/images/jDkx3.jpg

----------------------------------------------------------------------------------------------------


Encoded using revolutionary 10bit encoding, which enables us to provide you more crispier 
and sharper images at small sizes, just make sure you follow our instructions without a fault.
Recommend to you to use latest version of VLC player. Install K-Lite Codec Pack or shark007 codecs
in case of any kind of problem in playback (For non-VLC Media Player users). Alternatively, install
Core AVC codecs, the fastest decoder that there is coupled with Community Center Codec Pack and play
on Windows Media Player Classic. Check sample to be sure.
Enjoy!

Encoder Notes:Looking For Early Access To Anything You Can Provide DVDScr, R5, DVDR, BluRay, Direct
Audio, Music Releases and Seedboxes. We require dedicated servers, so as to do more 
and fast releases of movies.
If You Got anything to offer please contact us at "prg@hush.com".

Face book Fan Page:   
http://www.fb.me/p2pdl